<svg xmlns="http://www.w3.org/2000/svg" viewBox="0 0 198.72 74.77"><path fill="#1d1d1b" d="M0 18.48A18.48 18.48 0 0118.48 0h161.76a18.48 18.48 0 0118.48 18.48V56.3a18.47 18.47 0 01-18.48 18.47H18.48A18.47 18.47 0 010 56.3V18.48"/><path fill="#fff" d="M3.59 19A15.4 15.4 0 0119 3.61h160.74A15.39 15.39 0 01195.13 19v36.87a15.39 15.39 0 01-15.39 15.4H19a15.4 15.4 0 01-15.4-15.4V19"/><path fill="#da261b" d="M7.14 19.46A12.32 12.32 0 0119.46 7.14h159.83a12.33 12.33 0 0112.32 12.32V55.4a12.32 12.32 0 01-12.32 12.31H19.46A12.31 12.31 0 017.14 55.4V19.46"/><path fill="#fff" fill-rule="evenodd" d="M39 26.42h4c9.14 0 9.94 6.71 9.94 9.13 0 3.59-1.15 9.55-9 9.55H39V26.42M26.37 54.93h18.28c14.31 0 21-7.47 21-19.22 0-9.66-4.83-19.11-18.51-19.11H26.37z"/><path fill="#fff" d="M68.43 54.93h11.38v-11c0-6 2.42-8.42 6.9-8.42a12.47 12.47 0 014.49.69v-9.4a13.84 13.84 0 00-3.34-.43c-4.14 0-6.55 1.82-8.39 5.15h-.12v-4.46H68.43v27.87M93.78 27.06h11.38v27.86H93.78z"/><path fill="#fff" fill-rule="evenodd" d="M174.11 43.38c0-10.84-5.11-17-17-17-9.43 0-15.75 6.6-15.75 14.71 0 9.28 7.18 14.54 16.72 14.54 6.79 0 13.05-2.79 15.35-8.8h-10.58c-.92 1.34-2.93 2-4.77 2-3.57 0-5.52-2.26-5.81-5.43h21.84m-21.78-5.52c.52-3 2.47-4.68 5.86-4.68a4.75 4.75 0 015 4.68z"/><path fill="#fff" d="M93.68 17.94a5.8 5.8 0 115.79 5.79 5.8 5.8 0 01-5.79-5.79M153.05 5l-12.36-.04-14.48 39.07h-.11l-7.46-16.96h-12.01l12.57 27.86h13.45L153.05 5"/></svg>